<svg width="580" height="400" xmlns="http://www.w3.org/2000/svg">
 <!-- Created with SVG Editor - http://github.com/mzalive/SVG Editor/ -->
 <g>
  <title>background</title>
  <rect fill="#fff" id="canvas_background" height="402" width="582" y="-1" x="-1"/>
  <g display="none" overflow="visible" y="0" x="0" height="100%" width="100%" id="canvasGrid">
   <rect fill="url(#gridpattern)" stroke-width="0" y="0" x="0" height="100%" width="100%"/>
  </g>
 </g>
 <g>
  <title>Layer 1</title>
  <rect id="svg_1" height="71" width="105" y="31.85" x="32.5" stroke-width="1.5" stroke="#000" fill="#fff"/>
  <text opacity="0.7" font-weight="bold" stroke="#000" transform="matrix(5.331274770251184,0,0,4.981412540537576,-696.730366003766,-950.8029965616289) " xml:space="preserve" text-anchor="start" font-family="Arvo, sans-serif" font-size="12" id="svg_3" y="252.039552" x="136.865878" stroke-width="0" fill="#000000">Sumdu</text>
  <ellipse ry="80.5" rx="95.5" id="svg_4" cy="128.35" cx="285" stroke-opacity="null" stroke-width="0" stroke="#000" fill="#8CD79F"/>
  <path d="m262.5,162.850006c-1,0 -2.309998,0.662506 -5,-1c-3.609009,-2.230484 -5.220215,-5.794876 -8,-9c-3.276016,-3.777267 -4.79393,-7.087433 -7,-12c-1.832031,-4.079666 -3.540497,-6.053497 -4,-8c-0.513748,-2.176254 -2.095444,-5.977348 -3,-10.000008c-1.118668,-4.974792 -3,-8 -3,-11c0,-1 0,-3 0,-5l-1,-3" id="svg_6" fill-opacity="null" stroke-opacity="null" stroke-width="0" stroke="#000" fill="none"/>
  <path stroke="#000" d="m463.5,161.850006c0,0 8.35907,-7.955841 19.846154,-16.08c15.003173,-10.610937 27.748306,-20.517892 36.384615,-29.480001c5.934728,-6.15861 9.179482,-8.899174 13.230769,-14.74c4.363402,-6.290778 8.598506,-13.486531 9.923077,-20.100001c1.675498,-8.365472 4.128357,-15.956441 4.961538,-21.440001c0.808299,-5.319843 1.653846,-10.72 1.653846,-16.08c0,-5.36 0,-10.72 0,-14.74l0,-1.34l0,0" id="svg_7" stroke-opacity="null" stroke-width="0" fill="#B8874D"/>
  <path d="m412.5,302.850006c-3,0 -11.926575,-0.320831 -20,-2c-5.955322,-1.238617 -12.076111,-3.61731 -13,-4c-2.613129,-1.082397 -5.606415,-3.549011 -11,-7c-3.767029,-2.410278 -4,-3 -5,-3c-1,0 -1,-1 -2,-4c-1,-3 -1.115875,-5.963837 -2,-9c-1.152771,-3.958679 -1.496216,-7.907776 -2,-12c-0.366547,-2.977509 0,-5 0,-6c0,-1 0,-1 0,-3l0,-1" id="svg_8" stroke-opacity="null" stroke-width="0" stroke="#000" fill="#000000"/>
  <path d="m490.5,291.850006c-2,3 -5.386871,5.917603 -8,7c-1.847748,0.765381 -7.079712,1.847961 -11,4c-5.11145,2.805908 -9.776154,6.467651 -13,12c-2.711334,4.652802 -3.498291,9.937958 -4,16c-0.577362,6.976135 -0.507324,12.024323 -1,17c-0.502441,5.074219 -1,7 -1,8c0,1 0.718994,1.310211 4,4c2.78833,2.285889 4,2 4,2c3,0 7,0 10,0l2,-1l1,-1" id="svg_9" stroke-opacity="null" stroke-width="0" stroke="#000" fill="none"/>
  <path id="svg_11" d="m58.5,175.85" opacity="0.5" fill-opacity="null" stroke-opacity="null" stroke-width="null" stroke="#000" fill="none"/>
  <path stroke="#000" id="svg_12" d="m78.0475,200.013811l31.499958,-30.175235l31.500032,30.175235l-12.031887,48.824761l-38.936181,0l-12.031923,-48.824761z" stroke-opacity="null" stroke-width="null" fill="#8391AE"/>
  <ellipse ry="19.5" rx="25" id="svg_13" cy="219.35" cx="429.5" stroke-opacity="null" stroke-width="null" stroke="#000" fill="#8391AE"/>
  <path id="svg_14" d="m183.582503,242.220644l0.500002,-0.542026l0.500003,0.542026l-0.190983,0.877021l-0.618038,0l-0.190984,-0.877021z" stroke-width="0" fill="#fff"/>
  <path d="m372.5,27.85c4,-1 8,-1 12,-1c4,0 8.215393,-0.88106 14,1c2.126465,0.69149 6,2 10,3c4,1 5,1 6,1.999998c2,2 2,2 3,3c1,1 3.190277,2.881523 5,6c2.24469,3.867996 6.917603,7.386875 8,10c0.38269,0.923878 0.620209,1.668903 2,5c1.951324,4.71088 1.612885,11.010712 2,18c0.500763,9.041527 1.499237,19.958473 2,29c0.331787,5.990822 0,8 0,9c0,1 0,5 0,8c0,5 -0.345184,11.176979 -2,16.000008c-1.451385,4.230072 -2.167969,7.920334 -4,12c-2.206055,4.912567 -6,14 -10,22l-4,5l0,1" id="svg_15" stroke-width="0" fill="#000000"/>
  <path d="m476.5,342.850006c-1,0 -4.228363,1.148041 -7,0c-3.919678,-1.623596 -5.078583,-3.938141 -9,-9c-3.062103,-3.952667 -4,-7 -6,-11c-1,-2 -2.167969,-4.920349 -4,-9c-2.206055,-4.912567 -3.115875,-7.963837 -4,-11c-1.152771,-3.958679 -2,-8 -2,-12c0,-4 -1.497559,-8.925781 -2,-14c-0.394165,-3.98053 0.095428,-8.977356 1,-13c1.118652,-4.974792 2.563507,-9.702499 5,-15c1.321381,-2.872971 4,-6 5,-6c1,0 3,0 5,0c3,0 5.292908,-0.707108 6,0c0.707092,0.707108 3,4 4,5c3,3 4,5 5,7c2,4 3,6 3,8c0,4 0,8 0,10c0,3 0,6 0,7c0,2 -0.917603,2.386871 -2,5c-0.765381,1.847748 -1,4 0,4c1,0 3.07843,-0.789856 6,-2c4.131714,-1.711426 7.519287,-4.558197 10,-8c3.922363,-5.441986 6.41156,-11.404022 10,-16c3.481293,-4.458771 7.410919,-8.692383 12,-12c1.813965,-1.307449 4.963806,-4.11586 8,-5c3.958679,-1.152771 8,-2 12,-2c3,0 6,0 8,1c4,2 7,6 9,10c2,4 3.497559,7.925781 4,13c0.492676,4.975677 0.316284,11.092651 -1,15c-2.431335,7.217255 -6.415894,11.761078 -8,15c-1.389343,2.840729 -3.729614,8.228851 -8,13c-3.772705,4.215088 -9.734253,8.278046 -16,14c-5.767273,5.266754 -10.938141,8.078583 -16,12c-3.952667,3.062103 -4.881531,5.190277 -8,7c-1.93399,1.122345 -6.072784,2.881897 -11,6c-3.046722,1.92807 -4.761078,3.415894 -8,5c-2.840729,1.389343 -5.868286,3.288574 -10,5c-2.92157,1.210144 -5,2 -6,3l-1,0" id="svg_17" stroke-width="0" fill="#FABA6F"/>
 </g>
</svg>