<svg width="580" height="400" xmlns="http://www.w3.org/2000/svg">
 <!-- Created with SVG Editor - http://github.com/mzalive/SVG Editor/ -->
 <g>
  <title>background</title>
  <rect fill="#fff" id="canvas_background" height="402" width="582" y="-1" x="-1"/>
  <g display="none" overflow="visible" y="0" x="0" height="100%" width="100%" id="canvasGrid">
   <rect fill="url(#gridpattern)" stroke-width="0" y="0" x="0" height="100%" width="100%"/>
  </g>
 </g>
 <g>
  <title>Layer 1</title>
  <path d="m45.5,302.850006c0,0 -0.492687,2.024323 0,7c0.502445,5.074219 2.385098,11.372009 5,15c1.653809,2.294525 3.386875,4.917603 6,6c2.771637,1.148041 7,0 10,0c2,0 3.863251,-0.14682 6,-2c3.777267,-3.276001 6.91761,-6.386871 8,-9c1.530731,-3.695526 0,-9 0,-11c0,-2 -1.450493,-3.4505 -4,-6c-2.549507,-2.5495 -4.159279,-3.610657 -7,-5c-3.238922,-1.584106 -5.228363,-1.851959 -8,-3c-1.306564,-0.541199 -2.878681,0.121307 -5,-2c-0.707108,-0.707092 -1,-1 -2,-1c-2,0 -2,0 -3,0c-1,0 -2.292892,-0.707092 -3,0c-0.707108,0.707092 0.229752,1.026764 0,2c-0.513744,2.176239 -2.486256,4.823761 -3,7c-0.229752,0.973236 0,2 -1,2l0,1" id="svg_1" stroke-width="1.5" stroke="#000" fill="none"/>
  <path d="m107.5,293.850006c0,1 -2.497551,6.925781 -3,12c-0.591225,5.970795 0,14 0,25c0,8 -1.414215,13.585785 0,15c0.707108,0.707092 1.934143,1.144287 4,2c2.921562,1.210144 6.977341,1.095428 11,2c4.974792,1.118652 9,1 13,1l1,0l1,0" id="svg_2" stroke-width="1.5" stroke="#000" fill="none"/>
  <path d="m183.5,304.850006c-1,0 -4,0 -8,0c-5,0 -7.186005,0.692535 -9,2c-2.29454,1.653809 -7.143875,5.906555 -11,12c-3.118103,4.927216 -3.160416,7.963287 -4,12c-1.238632,5.955322 -1.640732,12.051636 -1,16c0.506546,3.121429 0.422806,5.448059 2,8c1.175568,1.9021 5.132996,2.569519 9,4c4.194351,1.551605 7.878555,3.493469 11,4c3.948349,0.640717 8,1 10,1c3,0 6,1 9,1c1,0 1,0 0,0l-1,-1" id="svg_3" stroke-width="1.5" stroke="#000" fill="none"/>
  <path d="m152.5,324.850006c1,0 3.977341,0.095428 8,1c4.974792,1.118652 8.076126,1.61731 9,2c1.306564,0.541199 1.693436,1.458801 3,2c0.923874,0.38269 3,0 4,0c0,0 1,1 2,1l0,0" id="svg_4" stroke-width="1.5" stroke="#000" fill="none"/>
  <path d="m238.5,306.850006c-1,1 -3.48584,7.893982 -5,16c-1.480377,7.925171 -2,15 -2,20c0,5 0,10 -1,14c-1,4 -1,9 -2,13l0,2l1,-1" id="svg_5" stroke-width="1.5" stroke="#000" fill="none"/>
  <path d="m266.5,310.850006c-2,0 -6.112152,3.918304 -9,8c-2.082474,2.943359 -4.458801,3.693451 -5,5c-0.38269,0.923889 -2,2 -3,3c-1,1 -0.70546,2.346191 -3,4c-1.813995,1.307465 -2.852737,3.173096 -4,4c-1.813995,1.307465 -3.386871,2.917603 -6,4c-0.923874,0.38269 -2,0 -2,0c-2,1 -5,3 -6,4c0,0 3.21167,1.714111 6,4c4.37468,3.586395 7.134644,8.811462 10,11c2.513077,1.919495 5.186005,4.692535 7,6c3.441803,2.480713 5,5 6,6l1,1" id="svg_6" stroke-width="1.5" stroke="#000" fill="none"/>
  <path d="m332.5,304.850006c-6,2 -16.332062,5.468079 -23,10c-5.295746,3.599304 -10.062958,7.310211 -13,13c-3.339325,6.469086 -3.499023,14.953308 -4,23c-0.372833,5.988403 0.990234,11.790253 2,19c0.693512,4.95166 0,9 0,9c0,1 -1,2 -2,4l-4,2l-1,2l-2,0" id="svg_7" stroke-width="1.5" stroke="#000" fill="none"/>
  <path d="m360.5,370.850006c0,-1 3.000397,-3.291565 7,-10c5.515442,-9.250946 10.945862,-22.030273 16,-31c3.957764,-7.023956 5.714111,-12.21167 8,-15c0.896606,-1.093658 4,-4 5,-5c0,0 -0.233948,1.052551 1,6c2.52655,10.129974 3.245148,22.9617 5,35c1.162964,7.977936 2,13 2,18c0,4 0.493469,5.878571 1,9c0.160187,0.987091 -1,1 -2,1l-1,-1" id="svg_8" stroke-width="1.5" stroke="#000" fill="none"/>
  <path d="m373.5,346.850006c2,0 5,0 11,0c3,0 7.080261,0.31073 10,1c2.176239,0.513733 3.026764,0.770233 4,1c2.176239,0.513733 2,1 3,1l0,1l1,0l1,0" id="svg_9" stroke-width="1.5" stroke="#000" fill="none"/>
  <path d="m426.5,380.850006c0,-1 1.498749,-2.946716 2,-10c0.425323,-5.984894 0.859558,-14.016724 2,-23c0.890533,-7.014771 1.310242,-13.034058 2,-20c0.502441,-5.074219 0.878693,-9.878693 3,-12c0.707092,-0.707092 1.115875,0.963837 2,4c2.305542,7.917358 2.929871,17.009064 4,25c0.938568,7.008514 2.498291,13.937958 3,20c0.412415,4.982971 0.234619,10.152252 1,12c0.541199,1.306549 2.076111,1.38269 3,1c1.306549,-0.541199 3.418854,-1.418854 5,-3c4.743408,-4.743408 7,-14 9,-22c2,-8 3,-17 4,-25l0,-4l0,-1" id="svg_10" stroke-width="1.5" stroke="#000" fill="none"/>
  <path d="m482.5,370.850006c2,-4 4.736938,-11.09201 8,-20c3.704529,-10.11319 5.243561,-16.072174 6,-20c1.018372,-5.287994 4.432892,-11.802429 7,-18c1.210144,-2.92157 2.292908,-5.292908 3,-6c1.414215,-1.414215 2,0 3,0c2,0 4,0 4,1c0,1 2.496216,3.907776 3,8c0.855286,6.94754 0.498718,13.946716 1,21c0.425354,5.984894 0.488708,10.029968 0,14c-0.503784,4.092224 -1,6 -3,9c-2,3 -2.702667,4.541351 -6,6c-3.77063,1.66803 -8.907776,3.496216 -13,4c-4.962524,0.610931 -10,0 -13,0c-1,0 -2,0 -3,0l-1,0l-1,0" id="svg_11" stroke-width="1.5" stroke="#000" fill="none"/>
  <path d="m532.5,377.850006c0,-2 0,-7 0,-13c0,-4 -0.961121,-9.077484 0,-15c1.013062,-6.242889 1.763123,-13.343475 4,-19c1.325928,-3.352905 2.33197,-5.22937 4,-9c1.458618,-3.297333 4,-5 5,-6c1,-1 1.337463,-0.690002 3,2c0.743469,1.203003 1,3 1,4c0,1 1.031433,5.412079 -1,9c-0.696777,1.230652 -2.692566,2.186005 -4,4c-2.480713,3.441803 -5,4 -6,4c-1,0 -3.152222,0.234619 -5,1c-1.30658,0.541199 -1.122314,1.06601 0,3c1.809692,3.118469 4.541382,6.702667 6,10c1.66803,3.77063 3.928101,7.611053 6,10c1.465088,1.68924 3.308044,4.909668 7,7c3.587952,2.031464 5.186035,2.692535 7,4c1.147278,0.826904 2,1 4,1l1,1l1,1" id="svg_15" fill-opacity="null" stroke-opacity="null" stroke-width="1.5" stroke="#000" fill="none"/>
  <path id="svg_16" d="m214.267735,62.229616c35.457385,-85.053657 174.380582,0 0,109.354702c-174.380582,-109.354702 -35.457385,-194.40836 0,-109.354702z" stroke-opacity="null" stroke-width="1.5" stroke="#000" fill="#CE7975"/>
  <text font-weight="bold" stroke="#000" transform="matrix(2.6527011148395028,0,0,1.6252383426300294,-380.4516487238063,-88.11441215786765) " xml:space="preserve" text-anchor="start" font-family="'Palatino Linotype', 'Book Antiqua', Palatino, serif" font-size="16" id="svg_17" y="115.007637" x="199.265171" stroke-opacity="null" stroke-width="0" fill="#000000">sumdu</text>
 </g>
</svg>