<svg width="400" height="480" xmlns="http://www.w3.org/2000/svg">
 <!-- Created with SVG Editor - http://github.com/mzalive/SVG Editor/ -->
 <g>
  <title>background</title>
  <rect fill="#fff" id="canvas_background" height="482" width="402" y="-1" x="-1"/>
  <g display="none" overflow="visible" y="0" x="0" height="100%" width="100%" id="canvasGrid">
   <rect fill="url(#gridpattern)" stroke-width="0" y="0" x="0" height="100%" width="100%"/>
  </g>
 </g>
 <g>
  <title>Layer 1</title>
  <rect stroke="#000" id="svg_1" height="115.999997" width="123.000002" y="39.85" x="22.499998" stroke-width="1.5" fill="#fff"/>
  <rect id="svg_2" height="117" width="140" y="57.85" x="183.5" stroke-width="1.5" stroke="#000" fill="#fff"/>
  <text stroke="#000" transform="matrix(5.738972122332535,0,0,3.099695859943753,-605.014847500587,-539.9495042164352) " xml:space="preserve" text-anchor="start" font-family="Arvo, sans-serif" font-size="12" id="svg_3" y="249.621915" x="111.59194" stroke-width="0" fill="#000000">sumdu</text>
  <line stroke-linecap="null" stroke-linejoin="null" id="svg_4" y2="319.85" x2="330.5" y1="223.85" x1="310.5" fill-opacity="null" stroke-opacity="null" stroke-width="1.5" stroke="#000" fill="none"/>
  <path d="m45.5,271.850006c-4,1 -6,5 -10,12c-4,7 -6.985336,13.528137 -9,19c-2.101665,5.70816 -2.838024,12.21402 -1,20c2.054974,8.705017 7.104366,18.514496 12,26c4.274929,6.536438 8.521389,11.513824 16,18c7.554543,6.552032 16.118744,13.431274 27,16c6.812744,1.608276 13.017212,1.066498 17,0c7.032349,-1.883118 13.076447,-2.943787 16,-7c1.849014,-2.565369 3.502899,-9.015472 4,-17c0.500961,-8.046692 1.763824,-16.041809 1,-23c-1.006012,-9.16449 -5.19622,-16.936951 -8,-26c-2.151596,-6.954895 -4.795677,-15.091156 -8,-22c-2.822464,-6.085541 -6.632439,-13.477386 -13,-18c-4.753876,-3.376495 -11.078438,-6.789856 -14,-8c-2.065857,-0.855713 -3,-1 -6,-1c-4,0 -7.878555,0.493469 -11,1c-0.987091,0.160187 -4.078438,0.789856 -7,2c-2.065857,0.855713 -2.693436,2.458801 -4,3c-1.847759,0.765381 -3.292892,0.292908 -4,1c-0.707108,0.707092 -1,1 -1,3l0,3l-1,2l0,1" id="svg_5" fill-opacity="null" stroke-opacity="null" stroke-width="1.5" stroke="#000" fill="none"/>
  <path d="m181.5,398.850006c0,-1 -2.512558,-1.518372 -10,-10c-7.545715,-8.547638 -12,-15 -14,-18c-2,-3 -3.851135,-5.485321 -6,-10c-1.771988,-3.7229 -2.789856,-8.07843 -4,-11c-2.567123,-6.197571 -4.493454,-9.878571 -5,-13c-0.640732,-3.948364 -1.359268,-7.051636 -2,-11c-0.506546,-3.121429 -1.188339,-4.943665 -2,-8c-1.308762,-4.928192 -2,-9 -2,-14c0,-5 0,-9 0,-12c0,-5 0.851944,-7.228363 2,-10c0.541199,-1.306549 2.796997,-2.2565 4,-3c2.689987,-1.662506 6.937958,-3.498291 13,-4c4.982956,-0.412415 10.088303,0.75238 16,3c7.118622,2.706512 13,6 16,9c3,3 5.44841,6.805664 7,11c1.430496,3.867004 2,9 2,15c0,4 0,6 0,8c0,1 2.106262,-4.592865 7,-11c4.292099,-5.619415 9.718994,-11.310211 13,-14c2.78833,-2.285889 5.881516,-4.190277 9,-6c3.867981,-2.24469 7.549164,-4.95517 11,-6c1.914185,-0.579559 3,-1 4,-1c1,0 2,0 4,3c4,6 8.295013,11.40506 11,19c2.040833,5.730194 2.494873,13.020447 2,19c-0.501709,6.062042 -1.33197,12.22937 -3,16c-1.458649,3.297333 -3.323669,5.520172 -5,7c-2.703003,2.386169 -6.072784,5.881897 -11,9c-6.093445,3.85614 -11.132004,5.75531 -15,8c-3.118484,1.809723 -7.938126,6.078583 -13,10c-3.952652,3.062103 -8.372009,5.385101 -12,8c-3.441803,2.480713 -3.152237,3.234619 -5,4c-2.613129,1.082397 -2,4 -3,4c-1,0 -3.458801,1.693451 -4,3c-0.38269,0.923889 -1,1 -3,2c-2,1 -4,3 -5,3l-1,0" id="svg_6" stroke-opacity="null" stroke-width="1.5" stroke="#000" fill="#CC7C65"/>
  <path id="svg_7" d="m290.9225,391.052873l23.138436,-24.017121l32.723098,0l23.138436,24.017121l0,33.965768l-23.138436,24.017124l-32.723098,0l-23.138436,-24.017124l0,-33.965768z" fill-opacity="null" stroke-opacity="null" stroke-width="1.5" stroke="#000" fill="#fff"/>
  <path id="svg_8" d="m150.5,174.85c0,0 -54,50 -16,-3c38,-53 -77,34 -77.5,33.15c0.5,0.85 20.5,-12.15 20,-13" opacity="0.5" stroke-opacity="null" stroke-width="1.5" stroke="#000" fill="#CC7C65"/>
  <path d="m356.5,150.850006c0,1 -0.499237,6.958466 -1,16c-0.608307,10.98317 -1,21 -2,29c-1,8 -1.498749,15.946716 -2,23c-0.283569,3.989944 0,8 0,13c0,4 0.361664,8.305405 3,13c2.449615,4.358826 4.632965,8.198013 8,14c3.619446,6.236969 6.917603,9.386871 8,12c1.530731,3.695526 0.838684,7.244019 -1,12c-2.102631,5.43866 -7.085205,13.753784 -13,20c-4.402679,4.649353 -7.346191,5.705475 -9,8c-1.307465,1.813995 -4.723999,5.222717 -8,9c-2.779785,3.205109 -5.958557,6.031403 -9,10c-3.275726,4.274292 -5.794891,8.220215 -9,11c-3.777283,3.276001 -10.463806,8.689087 -18,14c-6.59021,4.644257 -12.056641,5.917542 -15,8c-4.081696,2.887848 -10.219391,6.665009 -18,12c-8.247437,5.65509 -14.232727,10.733246 -20,16c-5.221436,4.76828 -12.537903,11.55954 -19,20c-6.57547,8.588562 -8.097885,14.824432 -10,16c-0.850647,0.525726 -0.74675,0.371338 -5,3c-5.706345,3.526703 -9.805649,5.448395 -14,7c-3.867004,1.430481 -7,2 -12,2c-7,0 -14,0 -20,0c-6,0 -12,0 -19,0c-5,0 -13.03746,1.389069 -18,2c-4.092209,0.503784 -7,1 -10,1c-4,0 -10.187256,1.608276 -17,0c-4.352501,-1.027496 -7.693436,-2.458801 -9,-3c-2.771637,-1.148041 -6,0 -8,0c-2,0 -3,0 -6,0c-3,0 -4.012909,0.160187 -5,0c-3.121445,-0.506531 -3.292892,-1.292908 -4,-2c-0.707108,-0.707092 1,-1 2,-1l1,0l1,0l0,0" id="svg_9" stroke-opacity="null" stroke-width="1.5" stroke="#000" fill="none"/>
  <path stroke="#000" d="m380.500002,84.850006c-5.511111,8.384615 -12.646729,21.64243 -20.666667,33.538462c-7.121364,10.563119 -8.712611,18.223003 -11.022223,22.358974c-3.724137,6.669038 -7.889847,14.795003 -13.777778,25.153846c-5.204256,9.156045 -11.022223,19.564103 -13.777778,19.564103l-2.755556,5.589744l0,2.794872" id="svg_10" stroke-opacity="null" stroke-width="1.5" fill="none"/>
 </g>
</svg>