<?xml version="1.0" standalone="no"?>
<!DOCTYPE svg PUBLIC "-//W3C//DTD SVG 20010904//EN"
 "http://www.w3.org/TR/2001/REC-SVG-20010904/DTD/svg10.dtd">
<svg version="1.0" xmlns="http://www.w3.org/2000/svg"
 width="1000.000000pt" height="1600.000000pt" viewBox="0 0 1000.000000 1600.000000"
 preserveAspectRatio="xMidYMid meet">

<g transform="translate(0.000000,1600.000000) scale(0.100000,-0.100000)"
 fill="#333" stroke="none">
<path d="M840 12989 c-394 -70 -705 -354 -807 -737 -22 -82 -26 -120 -27 -242
-1 -166 15 -253 71 -389 80 -195 -12 -98 1822 -1934 l1686 -1687 -1677 -1678
c-922 -922 -1696 -1705 -1720 -1739 -64 -88 -125 -219 -155 -331 -34 -127 -38
-342 -9 -467 86 -374 370 -662 746 -758 129 -32 349 -30 482 6 113 30 244 91
331 155 34 24 817 798 1739 1720 l1678 1677 1687 -1686 c1827 -1824 1742
-1744 1926 -1821 136 -56 226 -72 392 -72 130 1 164 4 250 27 416 111 713 475
741 907 15 221 -51 449 -184 640 -28 41 -654 675 -1721 1743 l-1676 1677 1686
1688 c1811 1811 1746 1743 1819 1919 60 143 73 213 74 383 0 128 -3 170 -22
242 -109 433 -469 736 -911 764 -222 15 -450 -51 -641 -184 -41 -28 -675 -654
-1743 -1721 l-1677 -1676 -1688 1686 c-1811 1811 -1743 1746 -1919 1819 -128
53 -215 71 -363 75 -74 2 -160 0 -190 -6z"/>
</g>
</svg>
